<svg xmlns="http://www.w3.org/2000/svg" width="350" height="400" viewBox="0 0 350 400"><path fill="#8CC84B" d="M107.557 244.766c-6.358 3.976-15.936 10.417-23.346 17.422-12.165 11.488-14.712 27.424-8.294 31.147 5.937 3.441 19.796-.653 29.715-11.471 10.41-11.359 14.702-25.759 10.269-42.105-.521.311-1.033.622-1.534.913l.01.021-.672.381c-2.588 1.546-4.704 2.82-6.148 3.692zm178.651-5.157c-3.601 7.826-3.781 10.344-2.688 11.128 5.226-1.877 13.87-6.402 13.939-18.525.011-1.815-.39-3.763-1.032-5.799-5.586 4.947-8.806 10.125-10.219 13.196zm56.069-23.662c-13.959-1.627-24.851.331-33.305 3.853 1.565 4.074 2.768 8.318 2.938 12.593.392 9.383-6.066 16.327-12.797 21.285-3.931 2.889-8.113 4.816-11.623 5.979-2.808 1.185-6.538 2.408-9.187 1.868-5.837-1.186-8.945-6.373-4.974-17.812 2.146-6.19 8.333-15.614 18.322-23.732-2.276-4.686-4.814-9.462-6.107-13.849-2.548-8.649-3.319-13.877-3.319-13.877s-8.233 17.069-18.854 32.593c-.612.902-1.224 1.786-1.836 2.668 2.086 4.848 3.73 9.975 3.952 15.144.391 9.382-3.671 16.477-10.411 21.423-3.649 2.69-7.541 4.548-10.881 5.731-2.136.933-6.479 2.467-12.656 2.88-3.379.23-6.629.021-8.443-1.354-2.497-1.887-2.798-4.215-1.505-7.396 1.094-2.7 9.276-12.041 16.137-20.22 1.895-2.258 3.7-4.566 5.314-6.703l-.039-.091s1.243-1.605 3.259-4.405c-2.507-5.399-5.686-11.019-7.181-16.116-2.548-8.648-3.319-13.878-3.319-13.878s-8.345 21.395-17.039 38.474c-6.729 13.227-11.222 21.243-13.247 24.755l-.021.142s-.301.512-.822 1.315l-.391.651-.01-.061c-2.257 3.333-7.322 9.865-12.356 9.865-13.819 0-8.745-28.068-8.745-28.068s-4.041 10.396-8.594 19.317c-3.71 7.275-7.09 13.438-14.481 13.438-2.126 0-5.496-.061-8.294-2.721-6.348-6.031-11.202-21.345-10.25-33.205.812-10.085 2.367-17.069 4.493-22.898-3.791 2.066-8.173 4.516-12.636 7.135l-6.86 4.043.221.402c5.676 10.978 7.19 35.031-5.185 53.495-12.375 18.474-35.411 29.713-57.855 23.472-7.241-2.018-18.182-16.999-8.745-37.882 8.323-18.414 41.588-35.824 50.354-40.169l2.407-1.325c-17.479-15.293-61.124-35.924-67.242-67.614-1.725-8.921 2.457-30.255 28.651-54.779 22.033-20.622 52.681-36.417 80.992-46.482 47.565-16.908 97.82-6.934 105.551 23.391 7.602 29.824-18.271 65.498-51.406 78.322-29.585 11.449-54.045 9.633-64.094 6.333-11.422-3.753-18.122-11.29-19.756-15.544-.642-1.666-1.746-4.465 0-5.429 1.073-.592 1.504-.451 4.372 2.72 2.728 3.01 13.699 11.089 34.539 8.75 54.687-6.131 87.63-48.649 77.22-71.528-7.29-16.016-49.44-23.241-102.101 3.02-64.284 32.051-67.773 58.473-68.325 68.508-1.504 27.605 34.047 42.126 53.282 62.656l.742.813c3.6-1.987 7.401-4.084 11.132-6.131 9.698-5.329 18.844-10.327 23.106-12.655 6.77-9.842 20.508-20.701 30.427-20.701 15.855 0 10.41 22.789 10.41 22.789s.321-1.043.752-1.053c.451-.011 2.196-3.001 7.091-1.216 5.034 1.847 3.89 5.38 3.921 5.741.06.701-5.947 20.962-8.444 33.957-1.194 6.201-.502 10.718-.15 10.718.491 0 1.494-1.576 2.427-3.271l-.021-.051s.702-1.284 1.876-3.592l.231-.482.01.021c1.384-2.709 3.329-6.693 5.575-11.63 4.402-9.703 21.2-47.164 22.624-51.308s2.166-8.429 2.869-10.266c.692-1.836 6.629-3.221 13.568-3.171 6.94.051 7.643 3.011 7.692 3.623.05.612-3.3 8.831-4.072 14.641-.762 5.81-.029 8.709.603 13.586.411 3.19 2.406 7.235 4.764 11.821 7.181-11.741 19.815-34.198 21.029-40.49.832-4.305 2.166-8.429 2.868-10.266s6.63-3.221 13.569-3.171 7.641 3.011 7.692 3.623c.05.612-3.311 8.831-4.072 14.641-.763 5.8-.029 8.71.601 13.587.543 4.174 3.771 9.783 6.972 16.165 8.733-4.306 19.013-7.194 31.048-7.255 4.984-.029 10.771.472 13.76 1.404v-96.002c0-6.773-3.471-13.015-9.337-16.396l-156.607-90.516c-5.856-3.382-13.026-3.382-18.883 0l-156.176 90.473c-5.857 3.382-8.986 9.634-8.986 16.397v181.109c0 6.762 3.149 13.015 8.996 16.396l156.427 90.543c5.856 3.393 12.957 3.393 18.813 0l156.497-90.543c5.856-3.392 9.267-9.635 9.267-16.396v-73.194c-1.986-.584-4.894-1.045-7.723-1.375zm-168.481-9.484c-3.359 3.763-9.085 13.466-11.764 21.586-5.325 16.125-3.019 32.512.752 33.496 4.402 1.153 11.624-20.401 15.082-28.831 2.167-5.278 10.591-28.708 8.746-31.839-1.442-2.449-7.411-.472-12.816 5.588zm60.925 54.349s-1.062 1.004-.602 1.285c.622.371 1.966-.111 3.43-.874 4.142-2.608 13.438-9.111 13.458-18.734 0-.281-.011-.552-.03-.843-2.156 2.83-4.142 5.348-5.856 7.486-2.929 3.641-10.4 11.68-10.4 11.68z"/></svg>